<svg width="27.992134" height="28.000000" viewBox="0 0 27.9921 28" fill="none" xmlns="http://www.w3.org/2000/svg" xmlns:xlink="http://www.w3.org/1999/xlink">
	<desc>
			Created with Pixso.
	</desc>
	<defs/>
	<path d="M26.4001 21.1436C25.8186 20.7341 25.1474 20.5144 24.4696 20.4785C21.9145 18.8054 20.2408 17.5496 19.2637 16.5723L16.262 13.5708L18.0835 11.5317C18.4287 11.7266 18.7995 11.855 19.1704 11.908C19.4502 11.9546 19.6368 11.9546 19.8234 11.9546C20.1966 11.9546 20.2898 11.9546 20.663 12.2812C20.4764 12.4211 20.3831 12.6543 20.3831 12.8875C20.3831 13.1206 20.4764 13.4006 20.663 13.5872L22.2955 15.2197C22.5287 15.4995 22.9019 15.6394 23.275 15.6394C23.6482 15.6394 24.0213 15.4995 24.2545 15.1731L27.5662 11.8613C27.8461 11.6282 27.986 11.2549 27.986 10.8818C27.986 10.5088 27.8461 10.1821 27.5662 9.90234L25.9337 8.26978C25.7471 8.08325 25.5139 7.98999 25.2807 7.98999C25.0474 7.98999 24.8142 8.12988 24.6276 8.26978C24.2545 7.94336 24.2545 7.8501 24.2545 7.47681C24.2545 7.29028 24.2545 7.05713 24.1612 6.7771C24.0679 6.12427 23.7414 5.47119 23.2283 4.95801L21.5491 3.27905C20.5696 2.29932 20.1032 1.83301 18.8438 1.27319C16.1385 0.013916 13.3866 0.24707 9.37524 2.06616C9.142 2.15967 9.04875 2.34619 9.09538 2.57935C9.142 2.8125 9.32861 2.95264 9.56179 2.95264L10.1681 2.95264C12.2205 2.95264 13.2932 2.95264 15.159 4.81812C15.9759 5.63525 15.9995 6.88794 15.2675 7.80933C15.1689 7.82422 15.0938 7.86865 15.0191 7.94336L12.9471 10.2559L11.3809 8.6897C9.65941 6.96826 8.44858 5.33936 7.51669 3.52588C7.46776 2.60815 7.09952 1.74951 6.43671 1.08691C5.64381 0.293945 4.52438 -0.0793457 3.40494 0.0141602C3.26501 0.060791 3.12508 0.154053 3.07845 0.247314C2.98515 0.387207 2.98515 0.57373 3.07845 0.713623L4.38445 3.0459C4.10459 3.6521 3.45156 4.02539 2.79859 3.97876L1.44592 1.73975C1.3993 1.59985 1.21269 1.50659 1.07276 1.50659C0.932829 1.45996 0.792898 1.55322 0.699594 1.69312C-0.419844 3.37231 -5.53131e-05 5.61108 1.6791 6.77734C2.25762 7.19043 2.90939 7.42017 3.56947 7.46729C3.57685 7.47046 3.58379 7.47437 3.59144 7.47681C5.41053 8.40967 7.04306 9.62256 8.76884 11.3484L10.4747 13.0154L0.559719 24.082C0.186554 24.4551 0 24.9683 0 25.4812C0 25.9944 0.186554 26.4607 0.559719 26.834L1.21274 27.4871C1.58591 27.8135 2.05232 28 2.51873 28C2.98515 28 3.49824 27.8135 3.87141 27.4404L13.7751 16.3545L16.6516 19.2312C17.6302 20.2097 18.8882 21.9331 20.565 24.448C20.6251 25.3457 20.9925 26.1838 21.6425 26.834C22.3421 27.5337 23.275 27.9067 24.2545 27.9067C24.3945 27.9067 24.5344 27.9067 24.6277 27.9067C24.7676 27.9067 24.9075 27.8135 25.0009 27.6736C25.0942 27.5337 25.0942 27.3469 25.0009 27.207L23.6482 24.9216C23.9747 24.3152 24.5811 23.9421 25.2807 23.9888L26.5867 26.2275C26.6333 26.3674 26.8199 26.4609 26.9599 26.4609C27.1464 26.4143 27.2864 26.3674 27.3797 26.2275C28.499 24.5483 28.0326 22.3096 26.4001 21.1436ZM15.7654 4.07202C14.2728 2.62598 13.1534 2.15967 11.894 2.01978C14.5527 1.18018 16.5117 1.22681 18.4707 2.11304C19.5902 2.57935 19.9633 2.95264 20.9428 3.93213L22.622 5.61133C22.9952 5.98438 23.2283 6.45093 23.275 6.91724C23.3216 7.15039 23.3216 7.33691 23.3216 7.47705C23.3216 7.98999 23.3683 8.36304 23.928 8.92285C24.1145 9.10938 24.3944 9.20264 24.6276 9.20264C24.9075 9.20264 25.1407 9.10938 25.2807 8.92285L26.9132 10.5554C27.0065 10.6487 27.0531 10.7419 27.0531 10.8818C27.0531 11.0217 27.0065 11.1152 26.9132 11.2083L23.6015 14.52C23.4149 14.7065 23.1351 14.7065 22.9485 14.52L21.3159 12.8875C21.5025 12.7476 21.5958 12.5144 21.5492 12.2346C21.5492 12.0012 21.4559 11.7214 21.2693 11.5349C20.7096 10.9751 20.3364 10.9285 19.8234 10.9285C19.6835 10.9285 19.4969 10.9285 19.2637 10.8818C18.7506 10.8352 18.3308 10.6021 17.9577 10.2288L15.952 8.22314C16.9781 6.96387 16.8849 5.19141 15.7654 4.07202ZM1.11944 2.95264L2.09895 4.63184C2.19225 4.77173 2.33218 4.86499 2.47211 4.86499L2.70535 4.86499C3.77816 4.91162 4.75767 4.35181 5.22408 3.41895L5.31738 3.18579C5.41069 3.0459 5.41069 2.90601 5.31738 2.76611L4.2912 0.993652C4.85092 1.08691 5.36401 1.3667 5.7838 1.78662C6.2647 2.30737 6.5726 2.96631 6.5908 3.67407C6.58178 3.70996 6.5767 3.74854 6.5767 3.79224C6.5767 4.0083 6.55062 4.21899 6.50236 4.42212C6.32641 5.09741 5.90449 5.68628 5.31733 6.07764C4.38445 6.68408 3.12508 6.68408 2.19225 6.03125C1.21274 5.3313 0.792953 4.07202 1.11944 2.95264ZM9.42192 10.6953C8.02262 9.24951 6.62332 8.12988 5.13072 7.24365C5.36395 7.15039 5.64381 7.0105 5.87699 6.87061C6.57664 6.40405 7.04306 5.79785 7.32292 5.05151C8.20912 6.54395 9.32856 7.94336 10.7279 9.34277L12.3299 10.9448L11.0736 12.3472L9.42192 10.6953ZM3.21838 26.7407C2.84522 27.1138 2.23888 27.1604 1.86571 26.7874L1.21269 26.1809C1.02613 25.9944 0.932829 25.7612 0.932829 25.5278C0.932829 25.248 1.02613 25.0149 1.25931 24.7815L1.52349 24.4861L2.1922 25.1548C2.2855 25.248 2.37875 25.2947 2.51868 25.2947C2.65861 25.2947 2.75191 25.248 2.84517 25.1548C3.03172 24.9683 3.03172 24.6885 2.84517 24.5017L2.13983 23.7964L2.75623 23.1067L3.49819 23.8486C3.59149 23.9421 3.68474 23.9888 3.82467 23.9888C3.9646 23.9888 4.05791 23.9421 4.15116 23.8486C4.33771 23.6621 4.33771 23.3823 4.15116 23.1958L3.37269 22.4172L15.3702 8.99414L17.3293 10.9531L15.4044 13.1067C15.3494 13.1299 15.3008 13.1655 15.2523 13.2141L13.3866 15.313C13.3333 15.3662 13.2958 15.4272 13.273 15.4915L3.21838 26.7407ZM14.4133 15.6401L15.6898 14.2112L18.7039 17.2253C19.5435 18.1116 20.9894 19.231 23.0884 20.6304C22.8085 20.7236 22.5286 20.8635 22.2488 21.05C21.6701 21.4119 21.2602 21.9141 20.9746 22.469C20.9704 22.4771 20.9666 22.4851 20.9624 22.4932C20.9455 22.5266 20.929 22.5601 20.9129 22.5938C20.8899 22.6416 20.868 22.6899 20.8471 22.739C20.8328 22.772 20.8185 22.8049 20.805 22.8384C20.8031 22.8433 20.8012 22.8479 20.7993 22.8528C20.7846 22.8892 20.77 22.9258 20.7562 22.9624C20.4913 22.574 20.2364 22.2073 19.9913 21.8618L20.6163 21.2368C20.8029 21.0503 20.8029 20.7703 20.6163 20.5837C20.4297 20.3972 20.1499 20.3972 19.9633 20.5837L19.4433 21.1038C19.2495 20.8406 19.0623 20.5925 18.8817 20.3594L19.3103 19.9307C19.4969 19.7441 19.4969 19.4644 19.3103 19.2776C19.1237 19.0911 18.8439 19.0911 18.6573 19.2776L18.3012 19.6338C17.9584 19.2205 17.6422 18.8689 17.3513 18.5781L14.4133 15.6401ZM26.9131 24.9683L25.9336 23.2891C25.8403 23.1492 25.7004 23.0557 25.5605 23.0557L25.3272 23.0557C24.2544 22.9624 23.2749 23.5688 22.8085 24.5017L22.7152 24.7349C22.6219 24.8748 22.6219 25.0149 22.7152 25.1548L23.7413 26.9272C23.1816 26.834 22.6685 26.554 22.2487 26.1343C21.7769 25.623 21.472 24.9792 21.4433 24.2869C21.4513 24.2527 21.4558 24.2161 21.4558 24.1753C21.4558 23.5842 21.6434 23.031 21.9703 22.5625C22.1712 22.283 22.4224 22.0383 22.7151 21.843C23.1815 21.5166 23.6946 21.3767 24.2544 21.3767C24.8141 21.3767 25.3738 21.5632 25.8402 21.8896C26.8199 22.5894 27.2397 23.8486 26.9131 24.9683Z" fill="#E3B873" fill-opacity="1.000000" fill-rule="nonzero"/>
</svg>
